<svg width="40" height="40" viewBox="0 0 40 40" fill="none" xmlns="http://www.w3.org/2000/svg">
<path d="M19.9993 11.667C23.5356 11.667 26.927 13.0718 29.4274 15.5723C31.9279 18.0728 33.3327 21.4641 33.3327 25.0004C33.3327 28.5366 31.9279 31.928 29.4274 34.4285C26.927 36.9289 23.5356 38.3337 19.9993 38.3337C16.4631 38.3337 13.0717 36.9289 10.5713 34.4285C8.07077 31.928 6.66602 28.5366 6.66602 25.0004C6.66602 21.4641 8.07077 18.0728 10.5713 15.5723C13.0717 13.0718 16.4631 11.667 19.9993 11.667ZM19.9993 15.0004C17.3472 15.0004 14.8036 16.0539 12.9283 17.9293C11.0529 19.8047 9.99935 22.3482 9.99935 25.0004C9.99935 27.6525 11.0529 30.1961 12.9283 32.0714C14.8036 33.9468 17.3472 35.0004 19.9993 35.0004C22.6515 35.0004 25.1951 33.9468 27.0704 32.0714C28.9458 30.1961 29.9993 27.6525 29.9993 25.0004C29.9993 22.3482 28.9458 19.8047 27.0704 17.9293C25.1951 16.0539 22.6515 15.0004 19.9993 15.0004ZM19.9993 17.5004L22.2043 21.967L27.1327 22.6837L23.566 26.1587L24.4077 31.0687L19.9993 28.7504L15.591 31.067L16.4327 26.1587L12.866 22.682L17.7943 21.9654L19.9993 17.5004ZM29.9993 3.3337V8.3337L27.7277 10.2304C25.8426 9.24134 23.7845 8.62508 21.666 8.41536V3.3337H29.9993ZM18.3327 3.33203V8.41536C16.2149 8.62478 14.1574 9.24045 12.2727 10.2287L9.99935 8.3337V3.3337L18.3327 3.33203Z" fill="#8DB338"/>
</svg>
