<svg width="36" height="36" viewBox="0 0 36 36" fill="none" xmlns="http://www.w3.org/2000/svg">
<path d="M11.9471 9.3031C11.6685 9.26239 11.3843 9.31832 11.1419 9.46158H11.1212C10.5584 9.79148 10.0514 10.2084 9.61904 10.697C9.25974 11.1124 9.06483 11.5327 9.01364 11.9373C8.98313 12.1785 9.0038 12.4196 9.07566 12.65L9.10125 12.6657C9.50583 13.8548 10.0344 14.9987 10.6802 16.0756C11.512 17.5885 12.5357 18.9877 13.7258 20.2385L13.7613 20.2897L13.8174 20.3311L13.8528 20.3724L13.8942 20.4078C15.1495 21.6015 16.5521 22.6299 18.0679 23.4683C19.8004 24.4113 20.8517 24.8572 21.4827 25.0423V25.0521C21.6678 25.1082 21.8361 25.1338 22.0054 25.1338C22.5432 25.0944 23.0523 24.8761 23.4515 24.5137C23.9378 24.0812 24.3501 23.5721 24.6721 23.0066V22.9967C24.9743 22.4278 24.8719 21.8893 24.4358 21.5251C23.5625 20.7617 22.6181 20.0837 21.6156 19.5002C20.9443 19.136 20.2621 19.3565 19.9855 19.7257L19.3958 20.4689C19.0936 20.838 18.5444 20.7868 18.5444 20.7868L18.5286 20.7967C14.4326 19.7503 13.34 15.6031 13.34 15.6031C13.34 15.6031 13.2888 15.0391 13.6678 14.7516L14.4061 14.1571C14.7594 13.8696 15.0055 13.1884 14.6266 12.5161C14.0471 11.5122 13.3706 10.5676 12.6066 9.69586C12.4396 9.49036 12.2053 9.35053 11.9451 9.30113L11.9471 9.3031Z" fill="#8DB338"/>
<path d="M18.8689 7.50038C18.4547 7.50038 18.1189 7.83617 18.1189 8.25038C18.1189 8.6646 18.4547 9.00038 18.8689 9.00038C20.7656 9.00038 22.3417 9.62036 23.5867 10.8075C24.2277 11.4576 24.7266 12.2271 25.0542 13.0692C25.383 13.9144 25.5325 14.8157 25.4941 15.7185C25.4765 16.1324 25.7978 16.4821 26.2116 16.4997C26.6254 16.5173 26.9752 16.1961 26.9928 15.7822C27.04 14.6716 26.8559 13.5635 26.4521 12.5254C26.0483 11.4874 25.4337 10.5414 24.6461 9.7451L24.631 9.73068C23.0861 8.25314 21.1277 7.50038 18.8689 7.50038Z" fill="#8DB338"/>
<path d="M18.8178 9.96687C18.4036 9.96687 18.0678 10.3027 18.0678 10.7169C18.0678 11.1311 18.4036 11.4669 18.8178 11.4669H18.8423C20.211 11.5633 21.2069 12.0195 21.9051 12.7684C22.6198 13.5396 22.9901 14.4976 22.9627 15.6828C22.9531 16.0969 23.281 16.4404 23.6951 16.45C24.1092 16.4596 24.4527 16.1317 24.4623 15.7176C24.4983 14.1613 23.9978 12.8194 23.0044 11.7479L23.0031 11.7465C21.9881 10.6573 20.5958 10.0812 18.9183 9.96856L18.8932 9.96687H18.8178Z" fill="#8DB338"/>
<path d="M18.7894 12.4784C18.3758 12.4566 18.0228 12.7743 18.0011 13.1879C17.9793 13.6016 18.297 13.9546 18.7106 13.9763C19.3386 14.0094 19.7389 14.1977 19.9906 14.4519C20.2433 14.7071 20.4325 15.1159 20.4669 15.7567C20.4892 16.1703 20.8425 16.4876 21.2561 16.4654C21.6697 16.4431 21.987 16.0898 21.9648 15.6762C21.9164 14.7761 21.6347 13.9804 21.0564 13.3964C20.4769 12.8113 19.6857 12.5256 18.7894 12.4784Z" fill="#8DB338"/>
<path fill-rule="evenodd" clip-rule="evenodd" d="M10.6001 3.5756C15.3733 2.50866 20.3231 2.50866 25.0963 3.5756L25.6048 3.68927C28.45 4.32525 30.6956 6.50749 31.4127 9.3333C32.6242 14.1076 32.6242 19.1088 31.4127 23.8831C30.6956 26.7089 28.45 28.8911 25.6048 29.5271L25.0963 29.6408C22.098 30.311 19.03 30.5602 15.98 30.3884L12.0001 33.9493C11.6946 34.2228 11.2644 34.3083 10.8775 34.1725C10.4905 34.0367 10.2081 33.7011 10.1404 33.2967L9.48222 29.3647C6.92864 28.5712 4.94878 26.5039 4.28368 23.8831C3.07211 19.1088 3.07211 14.1076 4.28368 9.3333C5.0008 6.50748 7.24638 4.32525 10.0916 3.68927L10.6001 3.5756ZM24.6054 5.77141C20.1555 4.77672 15.5409 4.77672 11.0909 5.77141L10.5824 5.88508C8.56513 6.336 6.97299 7.88322 6.46455 9.88674C5.34515 14.2978 5.34515 18.9186 6.46455 23.3297C6.97299 25.3332 8.56513 26.8804 10.5824 27.3313L10.7167 27.3613C11.1635 27.4612 11.5053 27.8219 11.5809 28.2735L12.0223 30.9104L14.8308 28.3975C15.0576 28.1945 15.3569 28.0922 15.6604 28.1137C18.6506 28.3254 21.664 28.1025 24.6054 27.445L25.114 27.3313C27.1312 26.8804 28.7234 25.3332 29.2318 23.3297C30.3512 18.9186 30.3512 14.2978 29.2318 9.88674C28.7234 7.88322 27.1312 6.336 25.114 5.88508L24.6054 5.77141Z" fill="#8DB338"/>
</svg>
