<svg width="36" height="36" viewBox="0 0 36 36" fill="none" xmlns="http://www.w3.org/2000/svg">
<path d="M13.3289 10.7548C13.6034 10.7621 13.9076 10.777 14.1971 11.4195C14.3891 11.8473 14.7124 12.6348 14.9759 13.2763C15.1808 13.7755 15.3495 14.1863 15.3917 14.2703C15.4882 14.4623 15.5475 14.6839 15.4214 14.9423C15.4065 14.9728 15.3925 15.002 15.379 15.03C15.2778 15.24 15.2058 15.3895 15.0356 15.5849C14.9656 15.6652 14.8927 15.7533 14.8201 15.841C14.6924 15.9954 14.5655 16.1487 14.4568 16.257C14.2639 16.4489 14.0634 16.6559 14.286 17.0399C14.5088 17.4239 15.2879 18.6868 16.438 19.706C17.6745 20.8068 18.7497 21.2708 19.2932 21.5053C19.3988 21.5508 19.4842 21.5877 19.547 21.6189C19.9329 21.8109 20.1629 21.7813 20.3855 21.5229C20.6082 21.2643 21.3501 20.4002 21.6099 20.0162C21.8622 19.6322 22.1218 19.6913 22.4781 19.8242C22.8342 19.9571 24.7338 20.8877 25.1196 21.0797C25.1958 21.1176 25.2672 21.1519 25.3333 21.1836C25.6017 21.3123 25.7842 21.3998 25.8616 21.5303C25.9581 21.6927 25.9581 22.4608 25.639 23.3618C25.3126 24.2629 23.7394 25.127 23.0271 25.1934C22.9596 25.1998 22.8925 25.2079 22.8235 25.2163C22.1706 25.2952 21.3419 25.3955 18.3894 24.2333C14.7514 22.8027 12.3498 19.2531 11.8643 18.5355C11.826 18.4788 11.7996 18.4398 11.7855 18.4209L11.7772 18.4099C11.5563 18.1143 10.2049 16.306 10.2049 14.4403C10.2049 12.6552 11.0843 11.7259 11.4853 11.302C11.5108 11.2751 11.5343 11.2503 11.5555 11.2274C11.9116 10.8434 12.3272 10.7474 12.5869 10.7474C12.8467 10.7474 13.1063 10.7474 13.3289 10.7548Z" fill="#8DB338"/>
<path fill-rule="evenodd" clip-rule="evenodd" d="M3.27627 31.9971C3.15355 32.4426 3.55928 32.8538 4.00635 32.737L10.9174 30.9319C13.0989 32.1136 15.555 32.7413 18.0557 32.7413H18.0631C26.2921 32.7413 33 26.0722 33 17.8744C33 13.901 31.449 10.1639 28.6294 7.35736C25.8098 4.55095 22.0625 3 18.063 3C9.83411 3 3.12616 9.66908 3.12616 17.867C3.12523 20.475 3.8136 23.0373 5.12219 25.2967L3.27627 31.9971ZM7.29137 25.8943C7.4516 25.3127 7.37156 24.6911 7.06921 24.1691C5.95898 22.2521 5.37537 20.0782 5.37616 17.867C5.37616 10.9224 11.0661 5.25 18.063 5.25C21.4678 5.25 24.6444 6.56548 27.0422 8.95208C29.4372 11.336 30.75 14.4992 30.75 17.8744C30.75 24.8189 25.0601 30.4913 18.0631 30.4913H18.0557C15.9309 30.4913 13.8429 29.9577 11.989 28.9535C11.4872 28.6817 10.9009 28.6107 10.3487 28.7549L6.20514 29.8372L7.29137 25.8943Z" fill="#8DB338"/>
</svg>
