<svg width="36" height="36" viewBox="0 0 36 36" fill="none" xmlns="http://www.w3.org/2000/svg">
<path fill-rule="evenodd" clip-rule="evenodd" d="M3.375 18C3.375 9.9233 9.9233 3.375 18 3.375C21.8549 3.375 25.3505 4.87869 27.9592 7.30985C28.1825 7.51796 28.3116 7.80786 28.317 8.11305C28.3223 8.41824 28.2035 8.71251 27.9876 8.92834L24.1692 12.7468C23.7479 13.1681 23.0711 13.1879 22.6259 12.7919C21.3912 11.6935 19.7755 11.025 18 11.025C14.1481 11.025 11.025 14.1481 11.025 18C11.025 21.8519 14.1481 24.975 18 24.975C20.4358 24.975 22.5782 23.7229 23.8242 21.825H18C17.3787 21.825 16.875 21.3213 16.875 20.7V15.3C16.875 14.6787 17.3787 14.175 18 14.175H31.2374C31.7745 14.175 32.2366 14.5546 32.341 15.0814C32.5248 16.0091 32.625 17.022 32.625 18C32.625 26.0767 26.0767 32.625 18 32.625C9.9233 32.625 3.375 26.0767 3.375 18ZM18 5.625C11.1659 5.625 5.625 11.1659 5.625 18C5.625 24.8341 11.1659 30.375 18 30.375C24.8341 30.375 30.375 24.8341 30.375 18C30.375 17.4787 30.3412 16.9441 30.2779 16.425H19.125V19.575H25.6295C25.9948 19.575 26.3374 19.7524 26.5482 20.0507C26.7591 20.349 26.8119 20.7311 26.69 21.0755C25.4237 24.6518 22.0192 27.225 18 27.225C12.9055 27.225 8.775 23.0945 8.775 18C8.775 12.9055 12.9055 8.775 18 8.775C19.9699 8.775 21.7909 9.39779 23.2854 10.4486L25.5343 8.19966C23.4458 6.58744 20.8376 5.625 18 5.625Z" fill="#8DB338"/>
</svg>
