<svg width="36" height="36" viewBox="0 0 36 36" fill="none" xmlns="http://www.w3.org/2000/svg">
<path fill-rule="evenodd" clip-rule="evenodd" d="M35.1074 25.2975C34.2916 23.6542 33.2166 22.1532 31.9238 20.8519C31.4838 20.3405 30.9679 19.8357 30.5652 19.4417L30.5089 19.3867C30.3013 19.1834 30.1296 19.0147 29.9891 18.8693C31.7569 16.4111 33.2699 13.7789 34.5045 11.0133L34.5543 10.9018L34.5892 10.7846C34.7515 10.2403 34.9383 9.2052 34.2773 8.26976C33.594 7.30288 32.4999 7.12851 31.7673 7.12851H28.3967C27.694 7.0963 26.9982 7.28626 26.4087 7.67247C25.8147 8.06159 25.3603 8.62916 25.1103 9.29265C24.3844 11.0217 23.4761 12.6663 22.4021 14.199V10.249C22.4021 9.73845 22.354 8.88434 21.8073 8.16344C21.1527 7.30028 20.2061 7.12851 19.549 7.12851H14.2006C13.5116 7.11258 12.8414 7.35896 12.3264 7.81888C11.799 8.28989 11.4758 8.94781 11.4253 9.65314L11.4205 9.71996V9.78695C11.4205 10.5152 11.7091 11.0523 11.9396 11.3902C12.0428 11.5414 12.1532 11.6791 12.223 11.7661L12.2391 11.7861C12.3134 11.8788 12.3631 11.9407 12.4129 12.0085C12.5439 12.1867 12.7324 12.4615 12.7857 13.1726V15.382C11.8637 13.8663 10.891 11.8493 10.1591 9.69516L10.1479 9.6621L10.1355 9.62948C9.95297 9.15155 9.66029 8.45615 9.07411 7.924C8.38932 7.30232 7.57934 7.12851 6.84273 7.12851H3.42281C2.67759 7.12851 1.7792 7.30285 1.10886 8.00999C0.449659 8.70537 0.375 9.5386 0.375 9.98164V10.1813L0.417058 10.3765C1.36432 14.7732 3.31614 18.8905 6.11919 22.4065C7.39002 24.4106 9.11202 26.0904 11.1482 27.3113C13.2169 28.5517 15.5506 29.2828 17.9572 29.4446L18.02 29.4488H18.0829C19.1717 29.4488 20.3067 29.3548 21.1602 28.7861C22.3116 28.0188 22.4021 26.8404 22.4021 26.2532V24.5463C22.6975 24.7852 23.0642 25.1067 23.5129 25.5388C24.0555 26.0819 24.4874 26.5524 24.858 26.9631L25.0557 27.183L25.0569 27.1842C25.3446 27.5046 25.6278 27.82 25.8857 28.0792C26.2098 28.4051 26.6094 28.7641 27.1117 29.0294C27.6556 29.3166 28.2266 29.4465 28.8329 29.4465H32.2552C32.9762 29.4465 34.0103 29.276 34.7373 28.4331C35.5296 27.5145 35.4691 26.3886 35.22 25.5795L35.1752 25.4339L35.1074 25.2975ZM26.5286 25.4559C26.1433 25.0289 25.6788 24.5226 25.0918 23.9356L25.0869 23.9308C23.0527 21.9697 22.1023 21.6279 21.4301 21.6279C21.0727 21.6279 20.6772 21.668 20.4205 21.9878C20.2994 22.1387 20.2357 22.3207 20.2 22.5105C20.1644 22.7 20.1521 22.9224 20.1521 23.1758V26.2532C20.1521 26.6354 20.0893 26.7959 19.9125 26.9137C19.677 27.0706 19.1737 27.1978 18.0955 27.1988C16.049 27.0593 14.0646 26.4365 12.3052 25.3816C10.5423 24.3245 9.05563 22.8638 7.96781 21.1196L7.95597 21.1006L7.94196 21.0832C5.33006 17.8322 3.51004 14.0186 2.62545 9.94365C2.63025 9.74721 2.67281 9.63067 2.74176 9.55793C2.81281 9.48298 2.98498 9.37851 3.42281 9.37851H6.84273C7.22317 9.37851 7.42005 9.46127 7.56175 9.58991C7.7224 9.73575 7.86173 9.98341 8.03101 10.4256C8.87043 12.8946 10.0056 15.2035 11.0805 16.9013C11.6178 17.7498 12.1465 18.4561 12.6229 18.9553C12.8608 19.2044 13.094 19.4109 13.3165 19.5577C13.532 19.6998 13.7762 19.8118 14.0274 19.8118C14.1599 19.8118 14.3149 19.7982 14.4642 19.7321C14.6247 19.661 14.7494 19.5425 14.8374 19.3838C14.993 19.103 15.0357 18.687 15.0357 18.1421V13.0965L15.0349 13.0846C14.9572 11.8571 14.5866 11.1667 14.2257 10.6758C14.1466 10.5682 14.0686 10.471 14.0004 10.386L13.9817 10.3627C13.9068 10.2692 13.8471 10.1937 13.7981 10.1219C13.7084 9.99036 13.6736 9.89863 13.6707 9.80034C13.6824 9.68367 13.7374 9.57541 13.8251 9.49708C13.9162 9.41578 14.0353 9.37346 14.1572 9.37851H19.549C19.858 9.37851 19.9621 9.45393 20.0145 9.52302C20.0885 9.62056 20.1521 9.82339 20.1521 10.249V17.042C20.1521 17.8489 20.524 18.3951 21.0642 18.3951C21.6858 18.3951 22.1339 18.0179 22.9174 17.2344L22.9305 17.2213L22.9422 17.207C24.6984 15.0653 26.1337 12.6795 27.2021 10.1242L27.2089 10.105C27.2892 9.8792 27.4412 9.68588 27.6417 9.55455C27.8421 9.42322 28.0801 9.36108 28.3192 9.37762L28.3321 9.37851H31.7673C32.2358 9.37851 32.3899 9.49775 32.4398 9.56825C32.4928 9.64328 32.5297 9.80406 32.4395 10.1194C31.2079 12.874 29.6848 15.4887 27.8971 17.9195L27.8858 17.9368C27.7122 18.2022 27.5218 18.4958 27.4942 18.8331C27.4646 19.1952 27.6214 19.5244 27.8956 19.8772C28.0953 20.1727 28.5074 20.576 28.9254 20.9852L28.9648 21.0237C29.4031 21.4527 29.8779 21.9174 30.2591 22.3673L30.2693 22.3793L30.2804 22.3904C31.4166 23.5238 32.3614 24.8339 33.0781 26.2698C33.1924 26.6607 33.1224 26.8605 33.0335 26.9635C32.9294 27.0842 32.6965 27.1965 32.2552 27.1965H28.8329C28.5658 27.1965 28.3594 27.1438 28.1624 27.0397C27.957 26.9313 27.7457 26.7587 27.4809 26.4925C27.2676 26.278 27.0345 26.0186 26.7502 25.7021C26.6797 25.6237 26.6059 25.5416 26.5286 25.4559Z" fill="#8DB338"/>
</svg>
