<svg width="36" height="36" viewBox="0 0 36 36" fill="none" xmlns="http://www.w3.org/2000/svg">
<path fill-rule="evenodd" clip-rule="evenodd" d="M18 3C9.71573 3 3 9.71573 3 18C3 26.2843 9.71573 33 18 33C26.2843 33 33 26.2843 33 18C33 9.71573 26.2843 3 18 3ZM5.57143 18C5.57143 11.1359 11.1359 5.57143 18 5.57143C24.8641 5.57143 30.4286 11.1359 30.4286 18C30.4286 24.8641 24.8641 30.4286 18 30.4286C11.1359 30.4286 5.57143 24.8641 5.57143 18Z" fill="#8DB338"/>
<path d="M19.8604 12.5279H18.6936C16.5546 12.5279 15.4295 13.6114 15.4295 15.2087C15.4295 17.0144 16.2073 17.8605 17.8047 18.9452L19.1242 19.8341L15.3322 25.5H12.4987L15.9017 20.4314C13.9445 19.0285 12.8459 17.666 12.8459 15.3615C12.8459 12.4724 14.86 10.5 18.6797 10.5H22.4717V25.4861H19.8604V12.5279Z" fill="#8DB338"/>
</svg>
