<svg width="100" height="90" viewBox="0 0 100 90" fill="none" xmlns="http://www.w3.org/2000/svg">
<g opacity="0.7">
<path d="M90 33.333H63.3336V23.3322L43.332 0H6.6666C2.99954 0 0 2.99954 0 6.6666V83.3334C0 87.0005 2.99954 90 6.6666 90H56.667C60.3341 90 63.3336 87.0005 63.3336 83.3334V76.6668H90C95.6662 76.6668 100.001 72.3339 100.001 66.666V43.332C99.999 37.6659 95.6662 33.333 90 33.333ZM43.332 5.00039L58.999 23.334H46.6662C45 23.334 43.3338 21.6678 43.3338 20.0016V5.00039H43.332ZM59.9994 83.3317C59.9994 84.9979 58.6661 86.6641 56.667 86.6641H6.6666C5.00039 86.6641 3.33417 85.3308 3.33417 83.3317V6.6666C3.33417 5.00039 4.66749 3.33417 6.6666 3.33417H39.9996V19.9998C39.9996 23.6669 42.9991 26.6664 46.6662 26.6664H59.9994V33.333H33.333C27.6668 33.333 23.3322 37.6659 23.3322 43.332V66.666C23.3322 72.3322 27.6651 76.6668 33.333 76.6668H59.9994V83.3317ZM96.6649 66.666C96.6649 70.3331 93.6653 73.3326 89.9983 73.3326H33.333C29.6659 73.3326 26.6664 70.3331 26.6664 66.666V43.332C26.6664 39.665 29.6659 36.6654 33.333 36.6654H89.9983C93.6653 36.6654 96.6649 39.665 96.6649 43.332V66.666Z" fill="#020203"/>
<path d="M43.3328 43.373H33.332V66.707H43.3328C46.9999 66.707 49.9994 63.7075 49.9994 60.0404V50.0396C49.9994 46.3726 46.9981 43.373 43.3328 43.373ZM46.6652 60.0404C46.6652 62.0413 45.3319 63.3729 43.3328 63.3729H36.6662V46.7072H43.3328C45.3337 46.7072 46.6652 48.0405 46.6652 50.0396V60.0404Z" fill="#020203"/>
<path d="M63.3311 43.373H59.9986C56.3316 43.373 53.332 46.3726 53.332 50.0396V60.0387C53.332 63.7057 56.3316 66.7053 59.9986 66.7053H63.3311C66.9981 66.7053 69.9977 63.7057 69.9977 60.0387V50.0396C69.9977 46.3726 66.9981 43.373 63.3311 43.373ZM66.6652 60.0387C66.6652 62.0395 65.3319 63.3729 63.3311 63.3729H59.9986C57.9978 63.3729 56.6645 62.0395 56.6645 60.0387V50.0396C56.6645 48.0388 57.9978 46.7055 59.9986 46.7055H63.3311C65.3319 46.7055 66.6652 48.0388 66.6652 50.0396V60.0387Z" fill="#020203"/>
<path d="M89.9977 50.4998V50.0396C89.9977 46.3726 86.9981 43.373 83.3311 43.373H79.9986C76.3316 43.373 73.332 46.3726 73.332 50.0396V60.0387C73.332 63.7057 76.3316 66.7053 79.9986 66.7053H83.3311C86.9981 66.7053 89.9977 63.7057 89.9977 60.0387V59.5786H86.6652V60.0387C86.6652 62.0395 85.3319 63.3729 83.3311 63.3729H79.9986C77.9978 63.3729 76.6645 62.0395 76.6645 60.0387V50.0396C76.6645 48.0388 77.9978 46.7055 79.9986 46.7055H83.3311C85.3319 46.7055 86.6652 48.0388 86.6652 50.0396V50.4998H89.9977Z" fill="#020203"/>
</g>
</svg>
