<svg width="100" height="90" viewBox="0 0 100 90" fill="none" xmlns="http://www.w3.org/2000/svg">
<path d="M43.332 43.332H33.332V49.9987V66.6654H36.6654V56.6654H43.332C46.9986 56.6654 49.9987 53.6653 49.9987 49.9987C49.9987 46.3321 46.9986 43.332 43.332 43.332ZM43.332 53.3322H36.6654V46.6655H43.332C45.332 46.6655 46.6654 47.9989 46.6654 49.9989C46.6654 51.9989 45.332 53.3322 43.332 53.3322Z" fill="black"/>
<path d="M63.334 43.332H53.334V66.6654H63.334C67.0006 66.6654 70.0007 63.6653 70.0007 59.9987V49.9987C70.0007 46.3321 67.0006 43.332 63.334 43.332ZM66.6673 59.9989C66.6673 61.9989 65.334 63.3322 63.334 63.3322H56.6673V46.6655H63.334C65.334 46.6655 66.6673 47.9989 66.6673 49.9989V59.9989Z" fill="black"/>
<path d="M90 33.3333H63.3333V23.3333L43.3333 0H6.66667C2.99991 0 0 2.99991 0 6.66667V83.3333C0 86.9999 2.99991 90 6.66667 90H56.6667C60.3332 90 63.3333 86.9999 63.3333 83.3333V76.6667H90C95.6668 76.6667 100 72.3334 100 66.6667V43.3332C100 37.6666 95.6668 33.3333 90 33.3333ZM43.3333 4.99991L59.0001 23.3333H46.6667C45.0001 23.3333 43.3333 21.6668 43.3333 20V4.99991ZM60 83.3332C60 84.9997 58.6667 86.6665 56.6667 86.6665H6.66667C5.00009 86.6665 3.33333 85.3332 3.33333 83.3332V6.66667C3.33333 5.00009 4.66667 3.33333 6.66667 3.33333H40V20C40 23.6668 42.9999 26.6667 46.6667 26.6667H60V33.3333H33.3333C27.6666 33.3333 23.3333 37.6666 23.3333 43.3333V66.6667C23.3333 72.3334 27.6666 76.6667 33.3333 76.6667H60V83.3332ZM96.6667 66.6667C96.6667 70.3332 93.6666 73.3333 90 73.3333H33.3333C29.6666 73.3333 26.6667 70.3332 26.6667 66.6667V43.3332C26.6667 39.6664 29.6666 36.6665 33.3333 36.6665H90C93.6666 36.6665 96.6667 39.6664 96.6667 43.3332V66.6667Z" fill="black"/>
<path d="M73.334 66.6655H76.6673V56.6654H86.6673V53.3322H76.6673V46.6655H90.0007V43.332H73.334V66.6655Z" fill="black"/>
</svg>
