<svg width="36" height="36" viewBox="0 0 36 36" fill="none" xmlns="http://www.w3.org/2000/svg">
<path fill-rule="evenodd" clip-rule="evenodd" d="M8.68216 21.0294C8.74782 21.0515 8.81409 21.0672 8.8803 21.0769C8.9525 21.2465 9.0458 21.466 9.15463 21.7227C9.42025 22.3492 9.77813 23.1964 10.1475 24.0803C10.9009 25.8828 11.6608 27.7409 11.8287 28.2728C12.0364 28.9302 12.256 29.3773 12.4958 29.6824C12.6198 29.8402 12.7631 29.978 12.9309 30.0823C13.0153 30.1349 13.1046 30.178 13.1977 30.21C13.2018 30.2115 13.2059 30.2128 13.21 30.2142C13.69 30.3954 14.1276 30.3199 14.4016 30.2276C14.5483 30.1783 14.6669 30.1186 14.751 30.0703C14.7938 30.0456 14.83 30.0226 14.8589 30.0032L14.8657 29.9986L19.1051 27.3549L24.0018 31.1091C24.0741 31.1645 24.1529 31.211 24.2364 31.2474C24.8247 31.5041 25.3943 31.5936 25.9302 31.5204C26.4651 31.4474 26.8899 31.2226 27.2061 30.9697C27.5157 30.7219 27.7256 30.4445 27.8563 30.2383C27.923 30.1331 27.9732 30.04 28.0085 29.9686C28.0263 29.9328 28.0406 29.9019 28.0516 29.8771L28.0657 29.8444L28.0711 29.8316L28.0733 29.8261L28.0743 29.8236L28.0753 29.8212C28.101 29.7569 28.1207 29.6903 28.1342 29.6224L32.6045 7.08411C32.6188 7.01203 32.626 6.93872 32.626 6.86524C32.626 6.20522 32.3773 5.57761 31.7926 5.19677C31.2928 4.87128 30.7361 4.85727 30.3842 4.88397C30.0046 4.91278 29.6541 5.00648 29.4188 5.08136C29.2964 5.12032 29.1938 5.15792 29.1198 5.1866C29.0826 5.20102 29.0521 5.21338 29.0294 5.22282L29.0123 5.23L3.94173 15.0648L3.93849 15.066C3.92251 15.0718 3.902 15.0794 3.87762 15.0889C3.82907 15.1078 3.76403 15.1345 3.68805 15.1689C3.53988 15.2361 3.332 15.341 3.11869 15.4871C2.77791 15.7205 1.99418 16.3596 2.12615 17.4146C2.23143 18.2562 2.808 18.7731 3.15929 19.0216C3.35217 19.1581 3.53542 19.2557 3.66888 19.3192C3.73079 19.3487 3.85933 19.4009 3.91511 19.4236L3.92918 19.4293L8.68216 21.0294ZM29.8897 7.3018L29.8862 7.30332C29.8737 7.30874 29.8611 7.31394 29.8485 7.31891L4.74746 17.1657C4.73435 17.1708 4.72115 17.1757 4.70786 17.1804L4.69389 17.1857C4.67783 17.1919 4.65079 17.2029 4.61686 17.2183C4.59762 17.227 4.57754 17.2365 4.55706 17.2467C4.58519 17.2625 4.61211 17.2763 4.63603 17.2877C4.659 17.2986 4.67651 17.3061 4.6861 17.31L9.40005 18.897C9.48633 18.9261 9.56676 18.9646 9.64059 19.011L25.2057 9.89922L25.2203 9.8906C25.2317 9.88391 25.2465 9.8753 25.2644 9.86521C25.2998 9.84518 25.3485 9.81851 25.4064 9.78905C25.5144 9.73407 25.6872 9.65245 25.882 9.59228C26.0175 9.55038 26.4172 9.43235 26.8494 9.57095C27.1161 9.6565 27.3922 9.84041 27.5718 10.152C27.6611 10.3068 27.7086 10.4622 27.7316 10.6046C27.7928 10.8288 27.7831 11.0502 27.7352 11.2414C27.6321 11.6531 27.3428 11.9743 27.0796 12.22C26.8541 12.4306 23.936 15.2444 21.0572 18.022C19.6217 19.4072 18.2007 20.7787 17.1387 21.8039L16.4411 22.4773L25.249 29.2301C25.451 29.3024 25.5704 29.2987 25.6257 29.2911C25.6915 29.2822 25.7454 29.2568 25.8004 29.2128C25.862 29.1635 25.9158 29.0971 25.956 29.0336L25.9577 29.031L30.2934 7.17153C30.229 7.18699 30.164 7.20541 30.1013 7.22537C30.0302 7.24798 29.9717 7.26951 29.9328 7.28456C29.9136 7.29201 29.8998 7.29766 29.8923 7.30078L29.8897 7.3018ZM17.1978 25.8926L15.4406 24.5454L15.0148 27.254L17.1978 25.8926ZM13.8285 21.8721L15.576 20.1851C16.6381 19.1598 18.0592 17.7882 19.4949 16.4029L20.9537 14.9955L11.1736 20.7207L11.2261 20.8444C11.4927 21.4731 11.8522 22.3241 12.2235 23.2126C12.5012 23.8771 12.7916 24.5767 13.0561 25.2244L13.4806 22.5238C13.5216 22.2634 13.6488 22.038 13.8285 21.8721Z" fill="#8DB338"/>
</svg>
