<svg width="36" height="36" viewBox="0 0 36 36" fill="none" xmlns="http://www.w3.org/2000/svg">
<path d="M13.3297 10.7548C13.6042 10.7621 13.9084 10.777 14.1979 11.4195C14.3899 11.8473 14.7132 12.6348 14.9766 13.2763C15.1816 13.7755 15.3503 14.1863 15.3925 14.2703C15.489 14.4623 15.5483 14.6839 15.4222 14.9423C15.4073 14.9728 15.3933 15.002 15.3797 15.03C15.2786 15.24 15.2065 15.3895 15.0364 15.5849C14.9664 15.6652 14.8935 15.7533 14.8209 15.841C14.6932 15.9954 14.5663 16.1487 14.4576 16.257C14.2647 16.4489 14.0642 16.6559 14.2868 17.0399C14.5095 17.4239 15.2887 18.6868 16.4388 19.706C17.6753 20.8068 18.7505 21.2708 19.294 21.5053C19.3996 21.5508 19.485 21.5877 19.5478 21.6189C19.9337 21.8109 20.1637 21.7813 20.3863 21.5229C20.609 21.2643 21.3509 20.4002 21.6107 20.0162C21.863 19.6322 22.1226 19.6913 22.4789 19.8242C22.835 19.9571 24.7346 20.8877 25.1204 21.0797C25.1966 21.1176 25.268 21.1519 25.3341 21.1836C25.6025 21.3123 25.785 21.3998 25.8624 21.5303C25.9588 21.6927 25.9588 22.4608 25.6398 23.3618C25.3134 24.2629 23.7402 25.127 23.0279 25.1934C22.9604 25.1998 22.8933 25.2079 22.8242 25.2163C22.1714 25.2952 21.3427 25.3955 18.3902 24.2333C14.7522 22.8027 12.3506 19.2531 11.8651 18.5355C11.8268 18.4788 11.8004 18.4398 11.7863 18.4209L11.778 18.4099C11.5571 18.1143 10.2057 16.306 10.2057 14.4403C10.2057 12.6552 11.0851 11.7259 11.4861 11.302C11.5116 11.2751 11.535 11.2503 11.5563 11.2274C11.9124 10.8434 12.328 10.7474 12.5877 10.7474C12.8475 10.7474 13.1071 10.7474 13.3297 10.7548Z" fill="#8DB338"/>
<path fill-rule="evenodd" clip-rule="evenodd" d="M3.27706 31.9971C3.15434 32.4426 3.56007 32.8538 4.00714 32.737L10.9182 30.9319C13.0997 32.1136 15.5558 32.7413 18.0565 32.7413H18.0639C26.2929 32.7413 33.0008 26.0722 33.0008 17.8744C33.0008 13.901 31.4498 10.1639 28.6302 7.35736C25.8106 4.55095 22.0633 3 18.0638 3C9.8349 3 3.12695 9.66908 3.12695 17.867C3.12602 20.475 3.8144 23.0373 5.12298 25.2967L3.27706 31.9971ZM7.29217 25.8943C7.4524 25.3127 7.37235 24.6911 7.07001 24.1691C5.95978 22.2521 5.37616 20.0782 5.37695 17.867C5.37695 10.9224 11.0669 5.25 18.0638 5.25C21.4686 5.25 24.6451 6.56548 27.043 8.95208C29.438 11.336 30.7508 14.4992 30.7508 17.8744C30.7508 24.8189 25.0609 30.4913 18.0639 30.4913H18.0565C15.9317 30.4913 13.8437 29.9577 11.9898 28.9535C11.488 28.6817 10.9017 28.6107 10.3495 28.7549L6.20593 29.8372L7.29217 25.8943Z" fill="#8DB338"/>
</svg>
