<svg width="36" height="36" viewBox="0 0 36 36" fill="none" xmlns="http://www.w3.org/2000/svg">
<path d="M11.9471 9.30261C11.6685 9.2619 11.3843 9.31783 11.1419 9.46109H11.1212C10.5584 9.791 10.0514 10.208 9.61904 10.6965C9.25974 11.1119 9.06483 11.5322 9.01364 11.9368C8.98313 12.178 9.0038 12.4191 9.07566 12.6495L9.10125 12.6652C9.50583 13.8544 10.0344 14.9982 10.6802 16.0751C11.512 17.588 12.5357 18.9873 13.7258 20.238L13.7613 20.2892L13.8174 20.3306L13.8528 20.3719L13.8942 20.4073C15.1495 21.601 16.5521 22.6294 18.0679 23.4678C19.8004 24.4108 20.8517 24.8567 21.4827 25.0418V25.0516C21.6678 25.1077 21.8361 25.1333 22.0054 25.1333C22.5432 25.0939 23.0523 24.8756 23.4515 24.5132C23.9378 24.0807 24.3501 23.5716 24.6721 23.0061V22.9963C24.9743 22.4273 24.8719 21.8888 24.4358 21.5246C23.5625 20.7612 22.6181 20.0832 21.6156 19.4998C20.9443 19.1355 20.2621 19.356 19.9855 19.7252L19.3958 20.4684C19.0936 20.8375 18.5444 20.7863 18.5444 20.7863L18.5286 20.7962C14.4326 19.7498 13.34 15.6026 13.34 15.6026C13.34 15.6026 13.2888 15.0386 13.6678 14.7511L14.4061 14.1566C14.7594 13.8691 15.0055 13.1879 14.6266 12.5156C14.0471 11.5117 13.3706 10.5671 12.6066 9.69537C12.4396 9.48987 12.2053 9.35005 11.9451 9.30064L11.9471 9.30261Z" fill="#8DB338"/>
<path d="M18.8689 7.49989C18.4547 7.49989 18.1189 7.83568 18.1189 8.24989C18.1189 8.66411 18.4547 8.99989 18.8689 8.99989C20.7656 8.99989 22.3417 9.61987 23.5867 10.807C24.2277 11.4571 24.7266 12.2266 25.0542 13.0687C25.383 13.9139 25.5325 14.8153 25.4941 15.718C25.4765 16.1319 25.7978 16.4816 26.2116 16.4992C26.6254 16.5168 26.9752 16.1956 26.9928 15.7818C27.04 14.6711 26.8559 13.563 26.4521 12.5249C26.0483 11.4869 25.4337 10.541 24.6461 9.74461L24.631 9.73019C23.0861 8.25265 21.1277 7.49989 18.8689 7.49989Z" fill="#8DB338"/>
<path d="M18.8178 9.96638C18.4036 9.96638 18.0678 10.3022 18.0678 10.7164C18.0678 11.1306 18.4036 11.4664 18.8178 11.4664H18.8423C20.211 11.5628 21.2069 12.019 21.9051 12.7679C22.6198 13.5391 22.9901 14.4971 22.9627 15.6823C22.9531 16.0964 23.281 16.4399 23.6951 16.4495C24.1092 16.4591 24.4527 16.1312 24.4623 15.7171C24.4983 14.1608 23.9978 12.8189 23.0044 11.7474L23.0031 11.746C21.9881 10.6568 20.5958 10.0807 18.9183 9.96807L18.8932 9.96638H18.8178Z" fill="#8DB338"/>
<path d="M18.7894 12.4779C18.3758 12.4561 18.0228 12.7738 18.0011 13.1875C17.9793 13.6011 18.297 13.9541 18.7106 13.9758C19.3386 14.0089 19.7389 14.1972 19.9906 14.4514C20.2433 14.7067 20.4325 15.1154 20.4669 15.7562C20.4892 16.1698 20.8425 16.4871 21.2561 16.4649C21.6697 16.4426 21.987 16.0893 21.9648 15.6757C21.9164 14.7756 21.6347 13.9799 21.0564 13.3959C20.4769 12.8108 19.6857 12.5251 18.7894 12.4779Z" fill="#8DB338"/>
<path fill-rule="evenodd" clip-rule="evenodd" d="M10.6001 3.57511C15.3733 2.50817 20.3231 2.50817 25.0963 3.57511L25.6048 3.68878C28.45 4.32476 30.6956 6.507 31.4127 9.33281C32.6242 14.1071 32.6242 19.1083 31.4127 23.8826C30.6956 26.7084 28.45 28.8907 25.6048 29.5266L25.0963 29.6403C22.098 30.3105 19.03 30.5597 15.98 30.388L12.0001 33.9489C11.6946 34.2223 11.2644 34.3078 10.8775 34.172C10.4905 34.0362 10.2081 33.7006 10.1404 33.2962L9.48222 29.3642C6.92864 28.5707 4.94878 26.5034 4.28368 23.8826C3.07211 19.1083 3.07211 14.1071 4.28368 9.33281C5.0008 6.507 7.24638 4.32476 10.0916 3.68878L10.6001 3.57511ZM24.6054 5.77092C20.1555 4.77623 15.5409 4.77623 11.0909 5.77092L10.5824 5.88459C8.56513 6.33551 6.97299 7.88273 6.46455 9.88626C5.34515 14.2973 5.34515 18.9181 6.46455 23.3292C6.97299 25.3327 8.56513 26.8799 10.5824 27.3308L10.7167 27.3609C11.1635 27.4607 11.5053 27.8215 11.5809 28.273L12.0223 30.9099L14.8308 28.397C15.0576 28.1941 15.3569 28.0917 15.6604 28.1132C18.6506 28.3249 21.664 28.102 24.6054 27.4445L25.114 27.3308C27.1312 26.8799 28.7234 25.3327 29.2318 23.3292C30.3512 18.9181 30.3512 14.2973 29.2318 9.88626C28.7234 7.88273 27.1312 6.33551 25.114 5.88459L24.6054 5.77092Z" fill="#8DB338"/>
</svg>
