<svg width="25" height="25" viewBox="0 0 25 25" fill="none" xmlns="http://www.w3.org/2000/svg">
<rect width="25" height="25" rx="4" fill="#F5F5F6"/>
<path fill-rule="evenodd" clip-rule="evenodd" d="M12.2952 3.49205C10.3385 3.76415 8.80872 5.27481 8.5072 7.23267C8.44765 7.6193 8.48461 8.48896 8.57617 8.85505C8.73819 9.50294 8.96816 9.99008 9.35375 10.5019C10.6461 12.2177 12.9445 12.7402 14.8541 11.7525C16.0332 11.1426 16.8527 10.0794 17.1397 8.78713C17.2253 8.40176 17.2443 7.61754 17.1782 7.19939C16.8868 5.35749 15.5021 3.90782 13.6809 3.53813C13.376 3.47623 12.5955 3.45029 12.2952 3.49205ZM13.5213 5.81818C14.176 6.03828 14.6835 6.5477 14.8892 7.19118C14.9781 7.46935 15.0098 7.99775 14.9548 8.28577C14.9325 8.40278 14.8452 8.64194 14.7608 8.81729C14.2471 9.88458 12.9546 10.3124 11.8798 9.77079C11.3848 9.52138 11.0071 9.09532 10.8263 8.58261C10.708 8.24675 10.6785 7.68813 10.7619 7.36031C10.981 6.4988 11.6323 5.88891 12.503 5.72992C12.7713 5.68093 13.2316 5.72082 13.5213 5.81818ZM8.39102 12.2559C8.07177 12.3758 7.80307 12.6778 7.69113 13.0424C7.60843 13.3119 7.62111 13.4695 7.74634 13.7278C7.93803 14.1232 8.74924 14.7423 9.53018 15.0891C10.1362 15.3582 11.0713 15.6042 11.7226 15.6658C11.8579 15.6786 11.9685 15.6961 11.9685 15.7047C11.9685 15.7133 11.2246 16.4752 10.3154 17.3979C9.02367 18.7087 8.64005 19.1176 8.56057 19.2685C8.20771 19.9384 8.78522 20.8215 9.57785 20.824C9.98985 20.8253 9.99962 20.8177 11.4557 19.36C12.1714 18.6435 12.7818 18.0555 12.8121 18.0533C12.8423 18.051 12.89 18.0521 12.9179 18.0557C12.9459 18.0593 13.5563 18.6487 14.2743 19.3655C15.647 20.7359 15.6931 20.774 16.0428 20.8253C16.4558 20.8859 16.9683 20.5732 17.1804 20.1311C17.2523 19.981 17.2711 19.8927 17.2708 19.7042C17.2701 19.2804 17.2976 19.3144 15.4385 17.4433C14.5184 16.5173 13.7657 15.7418 13.7657 15.72C13.7657 15.6982 13.8019 15.6803 13.8462 15.6803C13.9714 15.6803 14.7357 15.547 15.0373 15.4726C15.9091 15.2575 16.5975 14.9398 17.2414 14.4553C17.6128 14.1759 17.8712 13.9142 17.9747 13.7125C18.1961 13.281 17.9413 12.6002 17.4603 12.338C17.235 12.2153 16.9385 12.1866 16.6781 12.2624C16.5761 12.2921 16.3178 12.4264 16.1041 12.5609C15.3638 13.0268 14.6791 13.3033 13.9288 13.4392C12.4533 13.7066 10.988 13.4201 9.67958 12.6084C9.47443 12.4811 9.23791 12.3471 9.15399 12.3107C8.97247 12.2318 8.53816 12.2006 8.39102 12.2559Z" fill="#1C1C1C"/>
</svg>
