<svg width="25" height="25" viewBox="0 0 25 25" fill="none" xmlns="http://www.w3.org/2000/svg">
<path fill-rule="evenodd" clip-rule="evenodd" d="M11.3301 0.0293377C8.89752 0.264667 6.48629 1.25368 4.59557 2.79169C4.03943 3.2441 3.15889 4.13155 2.71533 4.6868C1.5938 6.09065 0.674748 7.98957 0.293581 9.69035C0.0542147 10.7587 0 11.278 0 12.5035C0 13.7291 0.0542147 14.2484 0.293581 15.3167C0.683066 17.0546 1.6261 18.9807 2.78491 20.4049C3.23737 20.961 4.12491 21.8415 4.68022 22.285C6.08423 23.4064 7.98336 24.3253 9.68432 24.7064C10.7528 24.9458 11.2722 25 12.4978 25C13.7235 25 14.2429 24.9458 15.3113 24.7064C16.5902 24.4199 18.2624 23.7054 19.3612 22.976C21.2671 21.7108 22.7308 20.0463 23.7302 18.0076C24.3424 16.7588 24.6901 15.6404 24.9091 14.2159C25.0303 13.4277 25.0303 11.5793 24.9091 10.7912C24.6901 9.36672 24.3424 8.24829 23.7302 6.99948C23.077 5.66686 22.3488 4.65304 21.2975 3.61255C20.2654 2.591 19.3199 1.9197 18.0025 1.27301C16.7684 0.667221 15.6259 0.309971 14.2593 0.102481C13.6447 0.00918065 11.9705 -0.0326502 11.3301 0.0293377ZM13.6792 3.20829C15.7227 3.40756 17.4382 4.33395 18.5566 5.84221C19.4565 7.05579 19.8203 8.41038 19.6903 10.0645C19.4937 12.5683 18.523 14.5715 16.9716 15.6749C16.0336 16.342 15.1405 16.6319 14.0146 16.6347C12.9969 16.6372 12.3065 16.3753 11.6714 15.7458C11.4725 15.5487 11.3057 15.3936 11.3006 15.401C11.2956 15.4085 11.1324 16.042 10.9381 16.8089C10.4958 18.5539 10.4131 18.8056 10.0274 19.5814C9.56948 20.5023 8.6676 21.8482 8.50843 21.8482C8.39804 21.8482 8.35219 21.6785 8.29548 21.0604C8.19498 19.965 8.18402 19.5641 8.23662 18.9127C8.30585 18.0557 8.30522 18.0589 9.09906 14.695L9.77694 11.8228L9.68642 11.5394C9.36544 10.5344 9.3878 9.46339 9.747 8.63847C10.1058 7.81442 10.9301 7.25453 11.6589 7.33985C12.0486 7.38545 12.4244 7.57831 12.6033 7.82431C12.883 8.20905 12.9102 8.31483 12.9069 9.0054C12.9036 9.70356 12.9433 9.52944 12.249 11.892C11.9271 12.9875 11.9008 13.3846 12.1203 13.8323C12.5098 14.6268 13.3768 14.9737 14.3197 14.7123C15.5854 14.3613 16.58 12.8861 16.9598 10.7966C17.0402 10.3543 17.0641 10.0173 17.0677 9.27449C17.0719 8.41826 17.0609 8.28034 16.9604 7.92906C16.5543 6.51062 15.5267 5.52982 14.0614 5.16215C13.4737 5.01469 12.2541 4.97731 11.6213 5.0874C10.488 5.28456 9.51516 5.79103 8.77691 6.56816C8.05357 7.32958 7.60375 8.23988 7.43416 9.28545C7.24363 10.4598 7.42335 11.3508 8.01448 12.1631C8.15882 12.3614 8.24088 12.5251 8.24088 12.6146C8.24088 12.7738 8.01448 13.699 7.94269 13.8331C7.89166 13.9284 7.6885 13.9996 7.53139 13.9772C7.3547 13.952 6.83394 13.6326 6.55743 13.3799C5.31607 12.2456 4.91754 9.79036 5.65105 7.79637C6.17719 6.36595 7.24803 5.09048 8.61064 4.27103C9.96635 3.4558 11.9507 3.03974 13.6792 3.20829Z" fill="#F5F5F6"/>
</svg>
