<svg width="25" height="23" viewBox="0 0 25 23" fill="none" xmlns="http://www.w3.org/2000/svg">
<path d="M0 22.4783C0 16.5827 0 10.7262 0 4.81769C0.222969 4.80467 0.432823 4.77864 0.642677 4.77864C5.79721 4.77864 10.9517 4.76563 16.1063 4.79166C16.8408 4.79166 17.5884 4.86975 18.3097 5.03893C20.041 5.45539 21.1165 6.63971 21.2739 8.35761C21.4313 10.0235 21.392 11.7283 21.2346 13.4072C21.0641 15.2162 19.8967 16.2574 18.1261 16.6218C18.0081 16.6478 17.89 16.6868 17.6671 16.7519C19.0836 18.665 20.4607 20.5131 21.9297 22.5043C21.1559 22.5043 17.09 22.5043 17.09 22.5043L13.0503 16.7649H4.44627C4.44627 18.626 4.44627 20.5651 4.44627 22.4653C2.93795 22.4783 1.50832 22.4783 0 22.4783ZM4.45939 12.8736C4.70859 12.8736 4.8791 12.8736 5.0496 12.8736C8.3548 12.8736 11.6469 12.8736 14.9521 12.8736C15.2537 12.8736 15.5685 12.8736 15.8702 12.8606C16.4997 12.8216 16.8932 12.5092 16.9457 11.8585C16.985 11.39 16.985 10.9084 16.985 10.4269C16.9981 9.00833 16.6965 8.69599 15.28 8.69599C11.8698 8.69599 8.45972 8.69599 5.0496 8.69599C4.86598 8.69599 4.66924 8.72202 4.45939 8.73503C4.45939 10.1146 4.45939 11.442 4.45939 12.8736Z" fill="#F5F5F6"/>
<path d="M22.7954 4.93415C21.5494 4.96017 20.5395 3.99711 20.5264 2.74772C20.5133 1.48532 21.4707 0.50924 22.7298 0.496226C23.9627 0.483211 24.9727 1.43326 24.9989 2.63059C25.0382 3.91902 24.0939 4.90812 22.7954 4.93415Z" fill="#F5F5F6"/>
</svg>
