<svg width="36" height="36" viewBox="0 0 36 36" fill="none" xmlns="http://www.w3.org/2000/svg">
<path fill-rule="evenodd" clip-rule="evenodd" d="M8.6814 21.0294C8.74706 21.0515 8.81333 21.0672 8.87954 21.0769C8.95174 21.2465 9.04504 21.466 9.15387 21.7227C9.41948 22.3492 9.77737 23.1964 10.1468 24.0803C10.9001 25.8828 11.6601 27.7409 11.8279 28.2728C12.0357 28.9302 12.2553 29.3773 12.495 29.6824C12.619 29.8402 12.7624 29.978 12.9301 30.0823C13.0146 30.1349 13.1038 30.178 13.1969 30.21C13.201 30.2115 13.2051 30.2128 13.2092 30.2142C13.6892 30.3954 14.1269 30.3199 14.4009 30.2276C14.5475 30.1783 14.6661 30.1186 14.7502 30.0703C14.7931 30.0456 14.8293 30.0226 14.8582 30.0032L14.865 29.9986L19.1043 27.3549L24.0011 31.1091C24.0734 31.1645 24.1521 31.211 24.2356 31.2474C24.8239 31.5041 25.3936 31.5936 25.9295 31.5204C26.4644 31.4474 26.8892 31.2226 27.2053 30.9697C27.5149 30.7219 27.7248 30.4445 27.8555 30.2383C27.9223 30.1331 27.9724 30.04 28.0078 29.9686C28.0255 29.9328 28.0398 29.9019 28.0508 29.8771L28.065 29.8444L28.0703 29.8316L28.0725 29.8261L28.0736 29.8236L28.0745 29.8212C28.1002 29.7569 28.12 29.6903 28.1334 29.6224L32.6038 7.08411C32.6181 7.01203 32.6253 6.93872 32.6253 6.86524C32.6253 6.20522 32.3766 5.57761 31.7918 5.19677C31.2921 4.87128 30.7353 4.85727 30.3834 4.88397C30.0039 4.91278 29.6533 5.00648 29.4181 5.08136C29.2956 5.12032 29.193 5.15792 29.119 5.1866C29.0818 5.20102 29.0513 5.21338 29.0286 5.22282L29.0116 5.23L3.94097 15.0648L3.93772 15.066C3.92175 15.0718 3.90123 15.0794 3.87686 15.0889C3.82831 15.1078 3.76327 15.1345 3.68729 15.1689C3.53911 15.2361 3.33124 15.341 3.11793 15.4871C2.77715 15.7205 1.99341 16.3596 2.12538 17.4146C2.23067 18.2562 2.80724 18.7731 3.15852 19.0216C3.35141 19.1581 3.53466 19.2557 3.66811 19.3192C3.73003 19.3487 3.85857 19.4009 3.91435 19.4236L3.92842 19.4293L8.6814 21.0294ZM29.8889 7.3018L29.8854 7.30332C29.873 7.30874 29.8604 7.31394 29.8477 7.31891L4.74669 17.1657C4.73359 17.1708 4.72038 17.1757 4.70709 17.1804L4.69312 17.1857C4.67706 17.1919 4.65003 17.2029 4.61609 17.2183C4.59685 17.227 4.57678 17.2365 4.5563 17.2467C4.58443 17.2625 4.61135 17.2763 4.63527 17.2877C4.65823 17.2986 4.67575 17.3061 4.68534 17.31L9.39928 18.897C9.48556 18.9261 9.566 18.9646 9.63983 19.011L25.205 9.89922L25.2195 9.8906C25.2309 9.88391 25.2458 9.8753 25.2636 9.86521C25.2991 9.84518 25.3477 9.81851 25.4056 9.78905C25.5136 9.73407 25.6865 9.65245 25.8812 9.59228C26.0168 9.55038 26.4165 9.43235 26.8486 9.57095C27.1153 9.6565 27.3915 9.84041 27.5711 10.152C27.6603 10.3068 27.7079 10.4622 27.7309 10.6046C27.792 10.8288 27.7824 11.0502 27.7345 11.2414C27.6313 11.6531 27.3421 11.9743 27.0788 12.22C26.8533 12.4306 23.9352 15.2444 21.0565 18.022C19.6209 19.4072 18.2 20.7787 17.1379 21.8039L16.4403 22.4773L25.2482 29.2301C25.4502 29.3024 25.5697 29.2987 25.6249 29.2911C25.6907 29.2822 25.7446 29.2568 25.7996 29.2128C25.8612 29.1635 25.915 29.0971 25.9552 29.0336L25.9569 29.031L30.2926 7.17153C30.2282 7.18699 30.1632 7.20541 30.1005 7.22537C30.0295 7.24798 29.9709 7.26951 29.9321 7.28456C29.9128 7.29201 29.899 7.29766 29.8915 7.30078L29.8889 7.3018ZM17.197 25.8926L15.4398 24.5454L15.014 27.254L17.197 25.8926ZM13.8278 21.8721L15.5752 20.1851C16.6374 19.1598 18.0584 17.7882 19.4942 16.4029L20.9529 14.9955L11.1729 20.7207L11.2254 20.8444C11.4919 21.4731 11.8514 22.3241 12.2228 23.2126C12.5005 23.8771 12.7908 24.5767 13.0553 25.2244L13.4799 22.5238C13.5208 22.2634 13.648 22.038 13.8278 21.8721Z" fill="#8DB338"/>
</svg>
