<svg width="24" height="24" viewBox="0 0 24 24" fill="none" xmlns="http://www.w3.org/2000/svg">
<g clip-path="url(#clip0_2765_13574)">
<path d="M12 0.75C5.78662 0.75 0.75 5.787 0.75 12C0.75 18.213 5.787 23.25 12 23.25C18.213 23.25 23.25 18.213 23.25 12C23.25 5.787 18.213 0.75 12 0.75Z" fill="#BF2020"/>
<path d="M18.2475 7.51055L18.495 7.26306L18.2475 7.01558L16.9844 5.75251L16.7369 5.50503L16.4894 5.75251L12 10.242L7.51055 5.75251L7.26306 5.50503L7.01558 5.75251L5.75251 7.01558L5.50503 7.26306L5.75251 7.51055L10.242 12L5.75251 16.4894L5.50503 16.7369L5.75251 16.9844L7.01558 18.2475L7.26306 18.495L7.51055 18.2475L12 13.758L16.4894 18.2475L16.7369 18.495L16.9844 18.2475L18.2475 16.9844L18.495 16.7369L18.2475 16.4894L13.758 12L18.2475 7.51055Z" fill="white" stroke="white" stroke-width="0.7"/>
</g>
<defs>
<clipPath id="clip0_2765_13574">
<rect width="24" height="24" fill="white"/>
</clipPath>
</defs>
</svg>
