<svg width="29" height="38" viewBox="0 0 29 38" fill="none" xmlns="http://www.w3.org/2000/svg">
<path d="M20.985 19.0003L5 8.34279V29.6578L20.985 19.0003ZM28.44 20.0403L1.9425 37.7053C1.75426 37.8306 1.53558 37.9024 1.30973 37.9132C1.08388 37.924 0.859332 37.8734 0.659997 37.7666C0.460663 37.6599 0.294009 37.5011 0.177784 37.3072C0.0615589 37.1132 0.000116801 36.8914 0 36.6653V1.33529C0.000116801 1.10919 0.0615589 0.887348 0.177784 0.693401C0.294009 0.499454 0.460663 0.340663 0.659997 0.233941C0.859332 0.127219 1.08388 0.0765616 1.30973 0.0873656C1.53558 0.0981696 1.75426 0.17003 1.9425 0.295293L28.44 17.9603C28.6112 18.0744 28.7516 18.2291 28.8486 18.4105C28.9457 18.5919 28.9965 18.7945 28.9965 19.0003C28.9965 19.2061 28.9457 19.4086 28.8486 19.5901C28.7516 19.7715 28.6112 19.9261 28.44 20.0403Z" fill="white"/>
</svg>
